<?xml version="1.0" encoding="UTF-8" standalone="no"?>
<!-- Created with Inkscape (http://www.inkscape.org/) -->

<svg
   width="48"
   height="48"
   viewBox="0 0 12.7 12.7"
   version="1.1"
   id="svg5"
   xml:space="preserve"
   sodipodi:docname="gp-icon.svg"
   inkscape:version="1.2.2 (b0a8486541, 2022-12-01)"
   xmlns:inkscape="http://www.inkscape.org/namespaces/inkscape"
   xmlns:sodipodi="http://sodipodi.sourceforge.net/DTD/sodipodi-0.dtd"
   xmlns="http://www.w3.org/2000/svg"
   xmlns:svg="http://www.w3.org/2000/svg"><sodipodi:namedview
     id="namedview7"
     pagecolor="#ffffff"
     bordercolor="#666666"
     borderopacity="1.0"
     inkscape:showpageshadow="2"
     inkscape:pageopacity="0.0"
     inkscape:pagecheckerboard="0"
     inkscape:deskcolor="#d1d1d1"
     inkscape:document-units="px"
     showgrid="true"
     inkscape:zoom="10.61303"
     inkscape:cx="37.548184"
     inkscape:cy="50.456844"
     inkscape:window-width="1771"
     inkscape:window-height="1621"
     inkscape:window-x="857"
     inkscape:window-y="156"
     inkscape:window-maximized="0"
     inkscape:current-layer="layer1"><inkscape:grid
       type="xygrid"
       id="grid132"
       empspacing="8" /></sodipodi:namedview><defs
     id="defs2"><clipPath
       clipPathUnits="userSpaceOnUse"
       id="clipPath2796"><rect
         style="fill:#e315e1;fill-opacity:1;fill-rule:evenodd;stroke:none;stroke-width:0.0999998;stroke-linecap:round;paint-order:markers fill stroke;stop-color:#000000"
         id="rect2798"
         width="5.8208327"
         height="5.8208337"
         x="0.52916664"
         y="6.3499999"
         ry="1.0583335"
         rx="1.0583335" /></clipPath><clipPath
       clipPathUnits="userSpaceOnUse"
       id="clipPath2802"><path
         id="path2804"
         style="fill:#9b2a9a;fill-opacity:1;fill-rule:evenodd;stroke:none;stroke-width:0.0999998;stroke-linecap:round;paint-order:markers fill stroke;stop-color:#000000"
         d="M 5.8208333,6.4910766 V 11.1125 c 0,0.293158 -0.2360091,0.529167 -0.5291669,0.529167 H 0.67024303 c 0.18247479,0.316771 0.52398827,0.529166 0.91725657,0.529166 h 3.7041668 c 0.5863159,0 1.0583328,-0.472017 1.0583328,-1.058333 V 7.4083333 c 0,-0.3932684 -0.2123948,-0.734782 -0.5291659,-0.9172567 z" /></clipPath><clipPath
       clipPathUnits="userSpaceOnUse"
       id="clipPath3145"><path
         id="path3147"
         style="fill:none;fill-rule:evenodd;stroke:#000000;stroke-width:0.264583;stroke-linecap:round;paint-order:markers fill stroke;stop-color:#000000"
         d="M 7.4083333,6.4822922 H 11.1125 c 0.513027,0 0.926042,0.4130146 0.926042,0.9260417 V 11.1125 c 0,0.513027 -0.413015,0.926041 -0.926042,0.926041 H 7.4083333 c -0.5130271,0 -0.9260416,-0.413014 -0.9260416,-0.926041 V 7.4083339 c 0,-0.5130271 0.4130145,-0.9260417 0.9260416,-0.9260417 z m -5.820833,0 h 3.7041669 c 0.5130271,0 0.9260417,0.4130146 0.9260417,0.9260417 V 11.1125 c 0,0.513027 -0.4130146,0.926041 -0.9260417,0.926041 H 1.5875003 c -0.513027,0 -0.92604162,-0.413014 -0.92604162,-0.926041 V 7.4083339 c 0,-0.5130271 0.41301462,-0.9260417 0.92604162,-0.9260417 z M 7.4083333,0.66145868 H 11.1125 c 0.513027,0 0.926042,0.41301462 0.926042,0.92604162 v 3.7041658 c 0,0.5130271 -0.413015,0.9260417 -0.926042,0.9260417 H 7.4083333 c -0.5130271,0 -0.9260416,-0.4130146 -0.9260416,-0.9260417 V 1.5875003 c 0,-0.513027 0.4130145,-0.92604162 0.9260416,-0.92604162 z m -5.820833,0 h 3.7041669 c 0.5130271,0 0.9260417,0.41301462 0.9260417,0.92604162 v 3.7041658 c 0,0.5130271 -0.4130146,0.9260417 -0.9260417,0.9260417 H 1.5875003 c -0.513027,0 -0.92604162,-0.4130146 -0.92604162,-0.9260417 V 1.5875003 c 0,-0.513027 0.41301462,-0.92604162 0.92604162,-0.92604162 z" /></clipPath></defs><g
     inkscape:label="Layer 1"
     inkscape:groupmode="layer"
     id="layer1"><g
       id="g3130"
       clip-path="url(#clipPath3145)"><rect
         style="fill:#e315e1;fill-opacity:1;fill-rule:evenodd;stroke:none;stroke-width:0.1;stroke-linecap:round;paint-order:markers fill stroke;stop-color:#000000"
         id="rect413"
         width="5.8208327"
         height="5.8208337"
         x="0.52916664"
         y="6.3499999"
         ry="1.0583334"
         rx="1.0583334" /><path
         id="path1356"
         style="fill:#9b2a9a;fill-opacity:1;fill-rule:evenodd;stroke:none;stroke-width:0.1;stroke-linecap:round;paint-order:markers fill stroke;stop-color:#000000"
         d="M 5.8208333,6.4910766 V 11.1125 c 0,0.293158 -0.236009,0.529167 -0.529167,0.529167 H 0.67024303 c 0.1824748,0.316771 0.52398827,0.529166 0.91725657,0.529166 h 3.7041667 c 0.586316,0 1.058333,-0.472017 1.058333,-1.058333 V 7.4083333 c 0,-0.3932683 -0.212395,-0.7347819 -0.529166,-0.9172567 z" /><path
         id="path2789"
         style="fill:#0000aa;fill-rule:evenodd;stroke:none;stroke-width:0.264583px;stroke-linecap:butt;stroke-linejoin:miter;stroke-opacity:1;fill-opacity:1"
         d="m 10.847918,2.1166666 -12.7000012,-4.233333 v 0.529166 l 12.7000012,4.233334 z m 0,1.058333 -12.7000012,-4.233333 v 0.52916697 L 10.847918,3.7041666 Z m 0,1.058334 L -1.8520832,-4.3e-7 v 0.529167 L 10.847918,4.7624996 Z m 0,1.058333 -12.7000012,-4.233333 v 0.529166 l 12.7000012,4.233334 z m 0,1.0583333 -12.7000012,-4.2333333 v 0.529167 L 10.847918,6.8791669 Z m 0,1.0583337 -12.7000012,-4.233334 v 0.529167 L 10.847918,7.9374995 Z m 0,1.0583329 -12.7000012,-4.2333329 v 0.529166 l 12.7000012,4.233334 z m 0,1.0583331 -12.7000012,-4.233333 v 0.529167 L 10.847918,10.054167 Z m 0,1.0583334 -12.7000012,-4.2333331 v 0.529167 L 10.847918,11.112499 Z m 0,1.058333 L -1.8520832,7.4083336 V 7.9374995 L 10.847918,12.170833 Z m 0,1.058333 L -1.8520832,8.4666665 V 8.9958336 L 10.847918,13.229166 Z m 0,1.058334 -12.7000012,-4.2333334 v 0.5291674 l 12.7000012,4.233332 z m 0,1.058333 -12.7000012,-4.233333 v 0.529166 l 12.7000012,4.233334 z m 0,1.058333 -12.7000012,-4.233333 v 0.529167 l 12.7000012,4.233333 z m 0,1.058334 -12.7000012,-4.233334 v 0.529167 l 12.7000012,4.233333 z m 0,1.058333 -12.7000012,-4.233333 v 0.529166 l 12.7000012,4.233334 z m 0,1.058333 -12.7000012,-4.233333 v 0.529167 L 10.847918,19.579166 Z M -2.1166672,2.3812496 -6.3500002,15.08125 h 0.529166 l 4.233334,-12.7000004 z m 1.058333,0 -4.233333,12.7000004 h 0.529167 L -0.52916715,2.3812496 Z m 1.05833404666667,0 L -4.2333342,15.08125 h 0.529167 L 0.52916585,2.3812496 Z m 1.05833295333333,0 -4.233332,12.7000004 h 0.529165 L 1.5874998,2.3812496 Z m 1.058334,0 -4.233334,12.7000004 h 0.529167 L 2.6458328,2.3812496 Z m 1.058333,0 -4.233334,12.7000004 h 0.52916805 L 3.7041668,2.3812496 Z m 1.058333,0 L 8.4666667e-7,15.08125 H 0.52916685 L 4.7624998,2.3812496 Z m 1.058334,0 -4.233334,12.7000004 h 0.529167 L 5.8208338,2.3812496 Z m 1.058333,0 -4.233333,12.7000004 h 0.529167 L 6.8791668,2.3812496 Z m 1.058334,0 -4.233334,12.7000004 h 0.529166 L 7.9375008,2.3812496 Z m 1.058333,0 -4.233333,12.7000004 h 0.529167 L 8.9958338,2.3812496 Z m 1.058334,0 -4.233334,12.7000004 h 0.529167 L 10.054167,2.3812496 Z m 1.0583332,0 L 6.3499998,15.08125 h 0.529167 L 11.112501,2.3812496 Z m 1.058333,0 L 7.4083338,15.08125 h 0.529167 L 12.170834,2.3812496 Z m 1.058334,0 L 8.4666668,15.08125 h 0.529167 L 13.229167,2.3812496 Z m 1.058333,0 L 9.5250008,15.08125 H 10.054167 L 14.2875,2.3812496 Z m 1.058333,0 -4.233333,12.7000004 h 0.529167 L 15.345834,2.3812496 Z"
         clip-path="url(#clipPath2796)" /><path
         id="path2794"
         style="fill:#000055;fill-rule:evenodd;stroke:none;stroke-width:0.264583px;stroke-linecap:butt;stroke-linejoin:miter;stroke-opacity:1;fill-opacity:1"
         d="m 10.847918,2.1166666 -12.7000012,-4.233333 v 0.529166 l 12.7000012,4.233334 z m 0,1.058333 -12.7000012,-4.233333 v 0.52916697 L 10.847918,3.7041666 Z m 0,1.058334 L -1.8520832,-4.3e-7 v 0.529167 L 10.847918,4.7624996 Z m 0,1.058333 -12.7000012,-4.233333 v 0.529166 l 12.7000012,4.233334 z m 0,1.0583333 -12.7000012,-4.2333333 v 0.529167 L 10.847918,6.8791669 Z m 0,1.0583337 -12.7000012,-4.233334 v 0.529167 L 10.847918,7.9374995 Z m 0,1.0583329 -12.7000012,-4.2333329 v 0.529166 l 12.7000012,4.233334 z m 0,1.0583331 -12.7000012,-4.233333 v 0.529167 L 10.847918,10.054167 Z m 0,1.0583334 -12.7000012,-4.2333331 v 0.529167 L 10.847918,11.112499 Z m 0,1.058333 L -1.8520832,7.4083336 V 7.9374995 L 10.847918,12.170833 Z m 0,1.058333 L -1.8520832,8.4666665 V 8.9958336 L 10.847918,13.229166 Z m 0,1.058334 -12.7000012,-4.2333334 v 0.5291674 l 12.7000012,4.233332 z m 0,1.058333 -12.7000012,-4.233333 v 0.529166 l 12.7000012,4.233334 z m 0,1.058333 -12.7000012,-4.233333 v 0.529167 l 12.7000012,4.233333 z m 0,1.058334 -12.7000012,-4.233334 v 0.529167 l 12.7000012,4.233333 z m 0,1.058333 -12.7000012,-4.233333 v 0.529166 l 12.7000012,4.233334 z m 0,1.058333 -12.7000012,-4.233333 v 0.529167 L 10.847918,19.579166 Z M -2.1166672,2.3812496 -6.3500002,15.08125 h 0.529166 l 4.233334,-12.7000004 z m 1.058333,0 -4.233333,12.7000004 h 0.529167 L -0.52916715,2.3812496 Z m 1.05833404666667,0 L -4.2333342,15.08125 h 0.529167 L 0.52916585,2.3812496 Z m 1.05833295333333,0 -4.233332,12.7000004 h 0.529165 L 1.5874998,2.3812496 Z m 1.058334,0 -4.233334,12.7000004 h 0.529167 L 2.6458328,2.3812496 Z m 1.058333,0 -4.233334,12.7000004 h 0.52916805 L 3.7041668,2.3812496 Z m 1.058333,0 L 8.4666667e-7,15.08125 H 0.52916685 L 4.7624998,2.3812496 Z m 1.058334,0 -4.233334,12.7000004 h 0.529167 L 5.8208338,2.3812496 Z m 1.058333,0 -4.233333,12.7000004 h 0.529167 L 6.8791668,2.3812496 Z m 1.058334,0 -4.233334,12.7000004 h 0.529166 L 7.9375008,2.3812496 Z m 1.058333,0 -4.233333,12.7000004 h 0.529167 L 8.9958338,2.3812496 Z m 1.058334,0 -4.233334,12.7000004 h 0.529167 L 10.054167,2.3812496 Z m 1.0583332,0 L 6.3499998,15.08125 h 0.529167 L 11.112501,2.3812496 Z m 1.058333,0 L 7.4083338,15.08125 h 0.529167 L 12.170834,2.3812496 Z m 1.058334,0 L 8.4666668,15.08125 h 0.529167 L 13.229167,2.3812496 Z m 1.058333,0 L 9.5250008,15.08125 H 10.054167 L 14.2875,2.3812496 Z m 1.058333,0 -4.233333,12.7000004 h 0.529167 L 15.345834,2.3812496 Z"
         clip-path="url(#clipPath2802)" /><rect
         style="fill:#bdbdbd;fill-opacity:1;fill-rule:evenodd;stroke:none;stroke-width:0.1;stroke-linecap:round;paint-order:markers fill stroke;stop-color:#000000"
         id="rect299"
         width="5.8208337"
         height="5.8208327"
         x="0.52916664"
         y="0.52916664"
         ry="1.0583334" /><rect
         style="fill:#bdbdbd;fill-opacity:1;fill-rule:evenodd;stroke:none;stroke-width:0.1;stroke-linecap:round;paint-order:markers fill stroke;stop-color:#000000;font-variation-settings:normal;opacity:1;vector-effect:none;stroke-linejoin:miter;stroke-miterlimit:4;stroke-dasharray:none;stroke-dashoffset:0;stroke-opacity:1;-inkscape-stroke:none;stop-opacity:1"
         id="rect355"
         width="5.8208337"
         height="5.8208327"
         x="6.3499999"
         y="0.52916664"
         ry="1.0583334"
         rx="1.0583334" /><rect
         style="fill:#f5f85e;fill-opacity:1;fill-rule:evenodd;stroke:none;stroke-width:0.1;stroke-linecap:round;paint-order:markers fill stroke;stop-color:#000000"
         id="rect411"
         width="5.8208327"
         height="5.8208332"
         x="6.3500004"
         y="6.3499999"
         ry="1.0583334"
         rx="1.0583334" /><path
         id="rect1075"
         style="fill:#969696;fill-opacity:1;fill-rule:evenodd;stroke:none;stroke-width:0.1;stroke-linecap:round;paint-order:markers fill stroke;stop-color:#000000"
         d="M 5.8208333 0.67024333 L 5.8208333 5.2916667 C 5.8208333 5.5848247 5.5848247 5.8208333 5.2916667 5.8208333 L 0.67024333 5.8208333 C 0.85271812 6.1376049 1.1942317 6.35 1.5875 6.35 L 5.2916667 6.35 C 5.8779828 6.35 6.35 5.8779828 6.35 5.2916667 L 6.35 1.5875 C 6.35 1.1942317 6.1376049 0.85271812 5.8208333 0.67024333 z " /><path
         id="path1354"
         style="fill:#969696;fill-opacity:1;fill-rule:evenodd;stroke:none;stroke-width:0.1;stroke-linecap:round;paint-order:markers fill stroke;stop-color:#000000;font-variation-settings:normal;opacity:1;vector-effect:none;stroke-linejoin:miter;stroke-miterlimit:4;stroke-dasharray:none;stroke-dashoffset:0;stroke-opacity:1;-inkscape-stroke:none;stop-opacity:1"
         d="M 11.641667,0.67024333 V 5.2916667 c 0,0.293158 -0.236009,0.5291666 -0.529167,0.5291666 H 6.4910767 C 6.6735515,6.1376049 7.015065,6.35 7.4083333,6.35 H 11.1125 c 0.586316,0 1.058333,-0.4720172 1.058333,-1.0583333 V 1.5875 c 0,-0.3932683 -0.212395,-0.73478188 -0.529166,-0.91725667 z" /><path
         id="path1358"
         style="fill:#97992c;fill-opacity:1;fill-rule:evenodd;stroke:none;stroke-width:0.1;stroke-linecap:round;paint-order:markers fill stroke;stop-color:#000000"
         d="M 11.641667,6.4910769 V 11.1125 c 0,0.293158 -0.236009,0.529167 -0.529167,0.529167 H 6.4910771 c 0.1824748,0.316771 0.5239882,0.529166 0.9172565,0.529166 H 11.1125 c 0.586316,0 1.058333,-0.472017 1.058333,-1.058333 V 7.4083336 c 0,-0.3932683 -0.212395,-0.7347819 -0.529166,-0.9172567 z" /></g><rect
       style="fill:none;fill-opacity:1;fill-rule:evenodd;stroke:#000000;stroke-width:0.264584;stroke-linecap:round;stroke-dasharray:none;stroke-opacity:1;paint-order:markers fill stroke;stop-color:#000000"
       id="rect3021"
       width="5.5562501"
       height="5.5562491"
       x="0.66145867"
       y="0.66145867"
       ry="0.92604166"
       rx="0.92604166" /><rect
       style="fill:none;fill-opacity:1;fill-rule:evenodd;stroke:#000000;stroke-width:0.264584;stroke-linecap:round;stroke-dasharray:none;stroke-opacity:1;paint-order:markers fill stroke;stop-color:#000000"
       id="rect3075"
       width="5.5562501"
       height="5.5562491"
       x="6.4822917"
       y="0.66145867"
       ry="0.92604166"
       rx="0.92604166" /><rect
       style="fill:none;fill-opacity:1;fill-rule:evenodd;stroke:#000000;stroke-width:0.264584;stroke-linecap:round;stroke-dasharray:none;stroke-opacity:1;paint-order:markers fill stroke;stop-color:#000000"
       id="rect3077"
       width="5.5562501"
       height="5.5562491"
       x="0.66145867"
       y="6.4822922"
       ry="0.92604166"
       rx="0.92604166" /><rect
       style="fill:none;fill-opacity:1;fill-rule:evenodd;stroke:#000000;stroke-width:0.264584;stroke-linecap:round;stroke-dasharray:none;stroke-opacity:1;paint-order:markers fill stroke;stop-color:#000000"
       id="rect3079"
       width="5.5562501"
       height="5.5562491"
       x="6.4822917"
       y="6.4822922"
       ry="0.92604166"
       rx="0.92604166" /></g></svg>
